{"title":"Agents Presque Secrets (2016) 1080p Blu-Ray x264 FRENCH AC3 5.1","uid":15847303,"size":8651821039,"categoryP":"video","categoryS":"hd___tv_shows","magnet":"?xt=urn:btih:63f777a82984d44e0efd11a7753bb88d7d038a6b&amp;dn=Agents+Presque+Secrets+%282016%29+1080p+Blu-Ray+x264+FRENCH+AC3+5.1+&amp;tr=udp%3A%2F%2Ftracker.leechers-paradise.org%3A6969&amp;tr=udp%3A%2F%2Fzer0day.ch%3A1337&amp;tr=udp%3A%2F%2Fopen.demonii.com%3A1337&amp;tr=udp%3A%2F%2Ftracker.coppersurfer.tk%3A6969&amp;tr=udp%3A%2F%2Fexodus.desync.com%3A6969","seeders":13,"leechers":23,"uploader":"SaM","files":3,"time":1474117183,"description":"HQ 1080p Blu-ray Rip x264\r\n\r\nFrançais AC3 5.1\r\n\r\nFrançais forced Sub \r\n \nhttp://extraimago.com/image/wdLc \nhttp://extraimago.com/image/wdL7 \nhttp://extraimago.com/image/wdLs \nhttp://extraimago.com/image/wdLn \nhttp://extraimago.com/image/wdLj \nhttp://extraimago.com/image/wdLT \nhttp://extraimago.com/image/wdL2 \nhttp://extraimago.com/image/wdL8 \nhttp://extraimago.com/image/wdyf \nhttp://extraimago.com/image/wdyW\r\n\r\n: BD50 @ HDC\r\n\r\nFormat : Matroska\r\nFile size : 7.98 GiB\r\nDuration : 1 h 47 min\r\nOverall bit rate : 10.6 Mb/s\r\n\r\nVideo\r\nID : 1\r\nFormat : AVC\r\nFormat/Info : Advanced Video Codec\r\nFormat profile :   \r\nFormat settings, CABAC : Yes\r\nFormat settings, ReFrames : 5 frames\r\nCodec ID : V_MPEG4/ISO/AVC\r\nDuration : 1 h 47 min\r\nBit rate : 10.0 Mb/s\r\nWidth : 1 920 pixels\r\nHeight : 800 pixels\r\nDisplay aspect ratio : 2.40:1\r\nFrame rate mode : Constant\r\nFrame rate : 23.976 (24000/1001) FPS\r\nColor space : YUV\r\nChroma subsampling : 4:2:0\r\nBit depth : 8 bits\r\nScan type : Progressive\r\nBits/(Pixel*Frame) : 0.272\r\nStream size : 7.50 GiB (94%)\r\nForced : No\r\nColor range : Limited\r\nColor primaries : BT.709\r\nTransfer characteristics : BT.709\r\nMatrix coefficients : BT.709\r\n\r\nAudio\r\nFormat : AC-3\r\nFormat/Info : Audio Coding 3\r\nMode extension : CM (complete main)\r\nFormat settings, Endianness : Big\r\nCodec ID : A_AC3\r\nDuration : 1 h 47 min\r\nBit rate mode : Constant\r\nBit rate : 640 kb/s\r\nChannel(s) : 6 channels\r\nChannel positions : Front: L C R, Side: L R, LFE\r\nSampling rate : 48.0 kHz\r\nFrame rate : 31.250 FPS (1536 spf)\r\nCompression mode : Lossy\r\nStream size : 493 MiB (6%)\r\nLanguage : French\r\nDefault : Yes\r\nForced : No\r\n\r\n\r\nChapters = OUI","torrent":{"xt":"urn:btih:63f777a82984d44e0efd11a7753bb88d7d038a6b","amp;dn":"Agents+Presque+Secrets+%282016%29+1080p+Blu-Ray+x264+FRENCH+AC3+5.1+","amp;tr":["udp%3A%2F%2Ftracker.leechers-paradise.org%3A6969","udp%3A%2F%2Fzer0day.ch%3A1337","udp%3A%2F%2Fopen.demonii.com%3A1337","udp%3A%2F%2Ftracker.coppersurfer.tk%3A6969","udp%3A%2F%2Fexodus.desync.com%3A6969"],"infoHash":"63f777a82984d44e0efd11a7753bb88d7d038a6b","infoHashBuffer":{"type":"Buffer","data":[99,247,119,168,41,132,212,78,14,253,17,167,117,59,184,141,125,3,138,107]},"announce":[],"urlList":[]}}